<svg xmlns="http://www.w3.org/2000/svg" height="48px" viewBox="0 -960 960 960" width="48px" fill="#e3e3e3"><path d="M315.5-91Q239-123 181-181.5T91-316.95q-32-76.95-32-165.5T91-647.5q32-76.5 90-133t134.45-89q76.45-32.5 165-32.5T645-869.5q76 32.5 134 89t90.5 132.96q32.5 76.46 32.5 165T869.5-317Q837-240 779-181.5T644.77-91q-76.22 32-164.5 32Q392-59 315.5-91ZM479-147q33-34 55.5-79.5T573-337H388q13 61 36.09 108.16Q447.19-181.68 479-147Zm-81-12q-25-36-41.87-79.33Q339.25-281.65 327-337H181q36 68.81 84.5 109.4Q314-187 398-159Zm163-1q71-20 126.5-67T779-337H635.14Q622-283 604-239.5T561-160ZM162.04-393H317q-4-27-4.5-48t-.5-41q0-25 1-43.5t5-42.5H162.04Q156-544 153-526q-3 18-3 44 0 25 3 45t9.04 44Zm214.99 0H584q3-31 3.5-50t.5-39q0-20-.5-37.5t-3.53-48.5H377q-4 31-5 48.5t-1 37.5q0 20 1 39t5.03 50ZM643-393h155q4-24 7.5-44t3.5-45q0-26-3.5-44t-7.5-42H644q1 37 2 53.67 1 16.68 1 32.33 0 21-1.5 40t-2.5 49Zm-8.86-232H779q-34-66-89.5-113T560-802q25 37 43 79t31.14 98ZM388-625h186q-9-49.72-34.5-100.36T479-811q-29 25-50.5 68.5T388-625Zm-207 0h146.82Q339-678 355-719.5t42-81.5q-75 17-129 62t-87 114Z"/></svg>